<svg width="185" height="131" viewBox="0 0 185 131" fill="none" xmlns="http://www.w3.org/2000/svg">
<path d="M25.5602 64.98C25.5602 68.58 25.6802 72.96 25.9202 78.12C26.1602 83.16 26.8802 88.08 28.0802 92.88C29.4002 97.56 31.4402 101.58 34.2002 104.94C36.9602 108.3 40.9202 109.98 46.0802 109.98C51.3602 109.98 55.3802 108.3 58.1402 104.94C61.0202 101.58 63.0602 97.56 64.2602 92.88C65.5802 88.08 66.3602 83.16 66.6002 78.12C66.8402 72.96 66.9602 68.58 66.9602 64.98C66.9602 62.82 66.9002 60.24 66.7802 57.24C66.7802 54.12 66.5402 50.94 66.0602 47.7C65.7002 44.46 65.1002 41.28 64.2602 38.16C63.5402 34.92 62.4002 32.04 60.8402 29.52C59.2802 27 57.3002 24.96 54.9002 23.4C52.5002 21.84 49.5602 21.06 46.0802 21.06C42.6002 21.06 39.6602 21.84 37.2602 23.4C34.9802 24.96 33.0602 27 31.5002 29.52C30.0602 32.04 28.9202 34.92 28.0802 38.16C27.2402 41.28 26.6402 44.46 26.2802 47.7C25.9202 50.94 25.6802 54.12 25.5602 57.24C25.5602 60.24 25.5602 62.82 25.5602 64.98ZM0.000215128 64.98C0.000215128 52.74 1.20022 42.48 3.60022 34.2C6.12022 25.8 9.48022 19.08 13.6802 14.04C17.8802 9.00001 22.7402 5.40001 28.2602 3.24001C33.9002 1.08001 39.8402 1.12057e-05 46.0802 1.12057e-05C52.4402 1.12057e-05 58.3802 1.08001 63.9002 3.24001C69.5402 5.40001 74.4602 9.00001 78.6602 14.04C82.9802 19.08 86.3402 25.8 88.7402 34.2C91.2602 42.48 92.5202 52.74 92.5202 64.98C92.5202 77.58 91.2602 88.14 88.7402 96.66C86.3402 105.06 82.9802 111.78 78.6602 116.82C74.4602 121.86 69.5402 125.46 63.9002 127.62C58.3802 129.78 52.4402 130.86 46.0802 130.86C39.8402 130.86 33.9002 129.78 28.2602 127.62C22.7402 125.46 17.8802 121.86 13.6802 116.82C9.48022 111.78 6.12022 105.06 3.60022 96.66C1.20022 88.14 0.000215128 77.58 0.000215128 64.98ZM128.28 53.46C131.04 53.7 133.98 53.7 137.1 53.46C140.22 53.22 143.1 52.56 145.74 51.48C148.5 50.28 150.72 48.6 152.4 46.44C154.2 44.28 155.1 41.4 155.1 37.8C155.1 32.4 153.3 28.26 149.7 25.38C146.1 22.5 141.96 21.06 137.28 21.06C130.8 21.06 125.88 23.22 122.52 27.54C119.28 31.74 117.72 37.08 117.84 43.56H93.5397C93.7797 37.08 94.9197 31.2 96.9597 25.92C99.1197 20.52 102.06 15.9 105.78 12.06C109.62 8.22002 114.18 5.28001 119.46 3.24001C124.74 1.08001 130.62 1.12057e-05 137.1 1.12057e-05C142.14 1.12057e-05 147.18 0.780012 152.22 2.34001C157.26 3.78002 161.76 6.00002 165.72 9.00001C169.8 12 173.1 15.66 175.62 19.98C178.14 24.3 179.4 29.28 179.4 34.92C179.4 41.04 177.9 46.44 174.9 51.12C172.02 55.8 167.64 58.98 161.76 60.66V61.02C168.72 62.58 174.18 65.94 178.14 71.1C182.1 76.26 184.08 82.44 184.08 89.64C184.08 96.24 182.76 102.12 180.12 107.28C177.6 112.44 174.18 116.76 169.86 120.24C165.54 123.72 160.56 126.36 154.92 128.16C149.28 129.96 143.4 130.86 137.28 130.86C130.2 130.86 123.72 129.84 117.84 127.8C112.08 125.76 107.16 122.82 103.08 118.98C98.9997 115.02 95.8197 110.22 93.5397 104.58C91.3797 98.94 90.3597 92.46 90.4797 85.14H114.78C114.9 88.5 115.44 91.74 116.4 94.86C117.36 97.86 118.74 100.5 120.54 102.78C122.34 104.94 124.56 106.68 127.2 108C129.96 109.32 133.2 109.98 136.92 109.98C142.68 109.98 147.54 108.24 151.5 104.76C155.46 101.16 157.44 96.3 157.44 90.18C157.44 85.38 156.48 81.72 154.56 79.2C152.76 76.68 150.42 74.88 147.54 73.8C144.66 72.6 141.48 71.94 138 71.82C134.64 71.58 131.4 71.46 128.28 71.46V53.46Z" fill="#E0E0E0"/>
</svg>
