<svg width="18" height="18" viewBox="0 0 18 18" fill="none" xmlns="http://www.w3.org/2000/svg">
<path d="M9.00371 4.95732C6.76777 4.95732 4.96426 6.76084 4.96426 8.99678C4.96426 11.2327 6.76777 13.0362 9.00371 13.0362C11.2396 13.0362 13.0432 11.2327 13.0432 8.99678C13.0432 6.76084 11.2396 4.95732 9.00371 4.95732ZM9.00371 11.6229C7.55879 11.6229 6.37754 10.4452 6.37754 8.99678C6.37754 7.54834 7.55527 6.37061 9.00371 6.37061C10.4521 6.37061 11.6299 7.54834 11.6299 8.99678C11.6299 10.4452 10.4486 11.6229 9.00371 11.6229ZM14.1506 4.79209C14.1506 5.31592 13.7287 5.73428 13.2084 5.73428C12.6846 5.73428 12.2662 5.3124 12.2662 4.79209C12.2662 4.27178 12.6881 3.8499 13.2084 3.8499C13.7287 3.8499 14.1506 4.27178 14.1506 4.79209ZM16.826 5.74834C16.7662 4.48623 16.4779 3.36826 15.5533 2.44717C14.6322 1.52607 13.5143 1.23779 12.2521 1.17451C10.9514 1.10068 7.05254 1.10068 5.75176 1.17451C4.49316 1.23428 3.3752 1.52256 2.45059 2.44365C1.52598 3.36475 1.24121 4.48271 1.17793 5.74482C1.1041 7.04561 1.1041 10.9444 1.17793 12.2452C1.2377 13.5073 1.52598 14.6253 2.45059 15.5464C3.3752 16.4675 4.48965 16.7558 5.75176 16.819C7.05254 16.8929 10.9514 16.8929 12.2521 16.819C13.5143 16.7593 14.6322 16.471 15.5533 15.5464C16.4744 14.6253 16.7627 13.5073 16.826 12.2452C16.8998 10.9444 16.8998 7.04912 16.826 5.74834ZM15.1455 13.6409C14.8713 14.33 14.3404 14.8608 13.6479 15.1386C12.6107 15.5499 10.1498 15.455 9.00371 15.455C7.85762 15.455 5.39316 15.5464 4.35957 15.1386C3.67051 14.8644 3.13965 14.3335 2.86191 13.6409C2.45059 12.6038 2.54551 10.1429 2.54551 8.99678C2.54551 7.85068 2.4541 5.38623 2.86191 4.35264C3.13613 3.66357 3.66699 3.13271 4.35957 2.85498C5.39668 2.44365 7.85762 2.53857 9.00371 2.53857C10.1498 2.53857 12.6143 2.44717 13.6479 2.85498C14.3369 3.1292 14.8678 3.66006 15.1455 4.35264C15.5568 5.38975 15.4619 7.85068 15.4619 8.99678C15.4619 10.1429 15.5568 12.6073 15.1455 13.6409Z" fill="white" fill-opacity="0.2"/>
</svg>
