<svg width="285" height="40" viewBox="0 0 285 40" fill="none" xmlns="http://www.w3.org/2000/svg">
<path d="M285 29.8841H0V39.6882H285V29.8841Z" fill="#A83453"/>
<path d="M263.085 34.8124V35.2318C263.085 36.1231 262.77 36.9095 262.141 37.4862C261.512 38.0629 260.726 38.3775 259.677 38.3775C258.629 38.3775 257.737 38.0105 257.056 37.3289C256.374 36.6474 256.007 35.8085 256.007 34.7599C256.007 33.7114 256.374 32.925 257.056 32.191C257.737 31.5094 258.629 31.1424 259.677 31.1424C260.726 31.1424 260.883 31.2997 261.46 31.6142C261.984 31.9288 262.403 32.3482 262.718 32.8201L261.932 33.2919C261.722 32.9249 261.46 32.6104 261.04 32.4007C260.621 32.191 260.201 32.0337 259.73 32.0337C258.943 32.0337 258.314 32.2958 257.79 32.8201C257.265 33.3444 257.003 33.9735 257.003 34.7599C257.003 35.5464 257.265 36.1755 257.79 36.6998C258.314 37.2241 258.943 37.4862 259.782 37.4862C260.621 37.4862 261.04 37.3289 261.46 36.9619C261.879 36.6473 262.141 36.1755 262.246 35.6512H259.677V34.8124H263.137H263.085Z" fill="white"/>
<path d="M269.429 33.1347C270.006 33.1347 270.425 33.292 270.792 33.6589C271.159 34.0259 271.316 34.4978 271.316 35.1269V38.2202H270.477V35.1794C270.477 34.8124 270.373 34.4978 270.163 34.2881C269.953 34.0784 269.691 33.9735 269.376 33.9735C269.062 33.9735 268.695 34.0784 268.485 34.3405C268.275 34.6027 268.171 34.9697 268.171 35.4939V38.2202H267.332V35.1794C267.332 34.8124 267.227 34.4978 267.07 34.2881C266.86 34.0784 266.65 33.9735 266.283 33.9735C265.916 33.9735 265.602 34.0784 265.392 34.3405C265.13 34.6027 265.025 34.9697 265.025 35.4939V38.2202H264.186V33.2919H265.025V33.9735C265.339 33.4492 265.864 33.1871 266.493 33.1871C267.122 33.1871 267.646 33.4492 267.961 34.026C268.328 33.4492 268.8 33.1871 269.534 33.1871L269.429 33.1347Z" fill="white"/>
<path d="M275.248 33.1347C275.93 33.1347 276.507 33.3968 277.031 33.8687C277.503 34.3929 277.765 34.9697 277.765 35.7036C277.765 36.4376 277.503 37.0668 277.031 37.5386C276.559 38.0629 275.93 38.2726 275.248 38.2726C274.567 38.2726 273.833 37.9581 273.361 37.2765V38.1154H272.522V31.1948H273.361V34.026C273.78 33.3968 274.409 33.0298 275.248 33.0298V33.1347ZM275.144 37.5386C275.615 37.5386 276.035 37.3814 276.402 37.0144C276.716 36.6998 276.926 36.2804 276.926 35.7561C276.926 35.2318 276.769 34.8124 276.402 34.4978C276.087 34.1832 275.668 33.9735 275.144 33.9735C274.619 33.9735 274.2 34.1308 273.885 34.4978C273.571 34.8124 273.361 35.2318 273.361 35.7561C273.361 36.2804 273.518 36.6998 273.885 37.0144C274.2 37.3289 274.619 37.5386 275.144 37.5386Z" fill="white"/>
<path d="M283.165 31.2997H284.056V38.2202H283.165V35.1269H279.81V38.2202H278.866V31.2997H279.81V34.2357H283.165V31.2997Z" fill="white"/>
<path d="M0 18.1926V17.8256L6.8681 11.1672L13.8411 18.0353L13.6838 18.3499C11.5342 20.08 9.59437 22.9636 7.44481 24.5364C5.29525 26.1093 7.13024 24.851 6.8681 24.851L6.29139 24.5364L0 18.1926Z" fill="#A83453"/>
<path d="M210.814 0L214.327 3.56513C214.432 3.66999 214.484 3.77483 214.432 3.93212C214.432 4.24669 210.971 7.18268 210.552 7.75939L210.29 7.65453C209.451 6.50111 207.616 5.50498 206.882 4.40399C206.148 3.30299 206.567 3.8797 206.829 3.56513L210.342 0H210.709H210.814Z" fill="#A83453"/>
<path d="M159.015 2.77872C159.329 3.67 159.015 4.61371 159.015 5.45257C158.91 10.7478 159.015 16.0955 159.172 21.3908C159.329 26.686 159.329 23.383 158.858 24.117H153.825L153.51 23.8025V15.5188L153.3 15.3091H145.488L145.279 15.5188V23.9073L145.069 24.117H139.774L139.564 23.9073V2.936L139.774 2.72629H145.069C145.226 2.83115 145.226 2.98842 145.279 3.14571C145.436 4.35156 145.279 6.29142 145.279 7.5497C145.279 8.80797 144.65 10.6954 145.855 10.8527C148.005 10.6954 150.417 11.0624 152.514 10.8527C154.611 10.643 153.458 10.643 153.458 10.276V2.88357L153.667 2.67386H159.015V2.77872Z" fill="white"/>
<path d="M93.7417 24.2219L102.025 2.93599L102.34 2.83114C104.018 3.09328 105.853 2.72627 107.478 2.88355C109.103 3.04084 108.159 2.98842 108.369 3.25056L116.233 24.0122C116.233 24.1694 115.709 24.2219 115.552 24.2219C113.874 24.3267 112.092 24.117 110.414 24.2219C110.204 24.1694 109.365 21.2859 109.103 20.8665C108.841 20.447 108.684 20.4994 108.264 20.447C106.534 20.2897 104.28 20.447 102.445 20.447C100.61 20.447 101.554 20.1325 101.134 20.6567C100.453 21.4956 100.295 23.383 99.5613 24.2219H93.6893H93.7417ZM102.759 16.3052H106.744C106.954 16.3052 107.478 15.9382 107.426 15.6236L105.014 9.54195L102.812 16.3052H102.759Z" fill="white"/>
<path d="M226.647 23.9597V2.67385C226.857 2.56899 227.119 2.51657 227.329 2.51657C230.108 2.30685 236.923 2.25442 239.335 3.19813C243.005 4.66612 243.896 9.12252 242.743 12.5828C241.589 16.043 237.5 16.8295 233.882 16.777C230.265 16.7246 232.729 16.4625 232.362 16.9343C231.995 17.4062 232.467 22.8063 232.205 23.9073H226.647V23.9597ZM234.879 7.0254C234.145 6.92054 233.253 7.07783 232.467 7.0254C232.257 7.23511 232.205 7.44482 232.152 7.70696C231.995 9.12252 232.467 10.7478 232.257 12.2158C232.257 12.3731 232.677 12.4255 232.834 12.4255C233.568 12.4255 235.298 12.2682 235.98 12.0061C237.657 11.3245 237.762 8.38853 236.294 7.49725C234.826 6.60597 235.193 7.07783 234.879 7.0254Z" fill="white"/>
<path d="M199.227 15.2566C199.123 14.5226 198.546 13.4741 197.812 13.2644C193.146 12.0585 194.299 18.2451 194.194 20.9189C194.089 23.5927 193.985 22.9636 194.037 23.9597C193.827 24.0646 193.618 24.117 193.355 24.117C192.412 24.1694 190.367 24.2219 189.423 24.117C188.48 24.0122 189.056 24.117 188.951 23.8549L189.056 9.8041C189.214 9.59439 189.423 9.59439 189.685 9.54196C190.996 9.38468 192.621 9.64682 193.932 9.54196L194.142 9.75167L194.247 11.1672C196.658 8.1264 202.897 8.07397 204.051 12.3207C204.732 14.8372 204.418 18.4548 204.523 21.181C204.628 23.9073 204.523 23.0685 204.523 24.0122C204.418 24.0122 204.26 24.1694 204.208 24.1694H199.437L199.227 23.9597V15.3091V15.2566Z" fill="white"/>
<path d="M167.246 17.5635C166.407 17.7207 167.036 19.1363 167.351 19.6082C168.085 20.7616 169.972 21.181 171.178 20.7092C172.384 20.2373 172.332 19.5557 173.171 19.5557C174.009 19.5557 173.8 19.713 174.167 19.713C175.268 19.713 176.316 19.6082 177.365 19.5557C177.365 22.649 173.433 24.4316 170.759 24.5889C164.52 24.9559 160.273 20.6043 161.898 14.3654C163.104 9.69924 168.033 8.3361 172.332 9.33224C176.631 10.3284 177.784 13.1071 177.889 16.8819C177.994 20.6567 177.889 17.4062 177.679 17.5635H167.246ZM172.961 14.6799C172.437 11.9012 168.452 11.6391 167.194 13.9983C165.935 16.3576 166.827 14.5226 167.141 14.6799H173.013H172.961Z" fill="white"/>
<path d="M269.796 19.1363C269.219 24.5888 262.089 25.2704 257.947 23.8024C253.805 22.3344 254.382 21.548 254.225 19.0314C254.067 16.5149 254.382 12.6876 254.277 9.69921C254.487 9.38464 255.011 9.69921 255.273 9.69921C256.531 9.59435 256.741 9.43707 258.157 9.4895C259.572 9.54193 259.363 9.01766 259.467 9.90894C259.782 12.3731 259.048 15.9906 259.467 18.4023C259.887 20.814 263.924 20.9713 264.396 18.4023C264.868 15.8333 264.238 14.942 264.605 13.3168L264.501 9.4895C264.605 9.4895 264.763 9.33222 264.815 9.33222H269.586L269.796 9.54193V19.1887V19.1363Z" fill="white"/>
<path d="M284.633 9.69922C284.266 10.3284 283.27 12.7925 282.746 13.0022C282.221 13.2119 281.697 12.5828 281.278 12.4255C280.491 12.2158 278.447 12.1633 278.447 13.3692C278.447 14.575 281.015 14.6275 281.854 14.8372C283.48 15.309 284.476 16.043 284.79 17.7732C285.944 23.5403 279.862 25.0607 275.353 24.0121C274.829 23.9073 272.679 23.1733 272.365 22.8587C272.05 22.5441 272.26 22.3344 272.365 22.0723C272.47 21.8101 273.518 19.713 273.78 19.346C274.043 18.979 273.938 19.0839 274.095 19.0315C275.196 19.7655 276.926 20.447 278.237 20.4994C279.547 20.5519 279.443 20.0276 279.81 19.4509C279.705 18.6645 279.338 18.4547 278.656 18.245C276.402 17.511 273.676 17.6683 273.309 14.5226C272.627 8.38852 280.491 7.81181 284.581 9.59437L284.633 9.69922Z" fill="white"/>
<path d="M245.522 0.576718C245.679 7.00355e-06 246.832 0.367011 247.199 0.419439C248.405 0.419439 249.611 0.419439 250.764 0.419439L250.607 3.77484C250.607 4.14184 250.764 4.45641 250.764 4.77098C250.817 11.1148 250.764 17.4586 250.712 23.8024C250.712 23.8549 250.502 24.0646 250.45 24.0646H245.679L245.469 23.8549V0.629149L245.522 0.576718Z" fill="white"/>
<path d="M77.7511 17.6159C77.856 17.7732 77.7511 18.0353 77.6463 18.1402L70.7782 24.7461L63.8052 17.878C63.8052 17.6159 67.1082 14.6275 67.58 14.1032C68.0519 13.5789 70.3063 10.9051 70.7782 10.9051L77.7511 17.5634V17.6159Z" fill="#A83453"/>
<path d="M38.5872 11.0624C38.7969 11.0099 38.9018 11.0624 39.0591 11.1672C39.9504 11.6915 41.1038 13.6838 42.0475 14.3129C42.5718 14.8372 45.7175 17.5111 45.7175 17.878L38.7445 24.7986L31.7715 17.9829L38.5348 11.0624H38.5872Z" fill="#A83453"/>
<path d="M180.248 9.85652C180.773 9.27981 181.507 9.69923 182.188 9.69923C182.87 9.69923 185.019 9.38467 185.386 9.64681L185.491 9.80409C185.281 14.5226 185.386 19.2412 185.491 23.9073C185.491 23.9073 185.019 24.1694 184.967 24.1694H180.458L180.248 23.9597V9.90895V9.85652Z" fill="white"/>
<path d="M207.93 23.9597V9.69924L208.14 9.48953H213.068V23.8549L213.016 24.0122C212.597 24.2219 212.125 23.9597 211.705 23.9597C210.447 23.9597 209.241 24.2219 207.983 23.9597H207.93Z" fill="white"/>
<path d="M122.63 18.1402C127.296 17.6683 127.558 24.3267 123.469 24.7462C119.012 25.218 118.331 18.612 122.63 18.1402Z" fill="white"/>
<path d="M182.713 0.15728C182.922 0.15728 183.079 0.314565 183.237 0.419421C183.866 0.891276 185.963 2.98841 186.435 3.61755C186.907 4.24669 186.645 3.77482 186.645 3.9321C186.645 4.40396 185.596 4.98067 185.281 5.29524C184.967 5.60981 183.184 7.70695 182.817 7.75938C182.45 7.81181 182.555 7.75937 182.45 7.65451L179.2 4.40397C178.938 4.19426 178.938 3.82726 179.147 3.56512L182.765 0.15728H182.713Z" fill="#A83453"/>
</svg>
