<svg width="240" height="70" viewBox="0 0 240 70" fill="none" xmlns="http://www.w3.org/2000/svg">
<g clip-path="url(#clip0_260_258)">
<path fill-rule="evenodd" clip-rule="evenodd" d="M220.175 61.9438L224.94 37.417H232.184L231.422 41.5346L231.994 40.6395L232.184 40.2814L232.375 40.1024L232.566 39.7443L232.756 39.5653L233.137 39.2072L233.328 39.0282L233.709 38.8492L233.9 38.4911L234.281 38.3121L234.472 38.1331L234.853 37.9541L235.234 37.775L235.616 37.596L235.997 37.417L236.378 37.2379H236.759L236.95 37.0589H237.331H237.712L237.903 36.8799H238.284H238.475H238.856H239.237H240L238.284 44.5781H237.903L237.712 44.3991H237.522H237.331H237.141H236.95H236.759H236.569L235.806 44.5781H235.234L234.662 44.7571L234.281 44.9361L233.709 45.1152L233.137 45.4732L232.756 45.6523L232.375 46.0103L231.994 46.5474L231.803 46.9055L231.422 47.4425L231.231 47.9796L230.85 48.6957L230.659 49.4119L230.469 50.128L230.278 50.8441L230.087 51.2021V51.5602L229.897 51.9182V52.4553V52.8134L229.706 53.1714V53.5295L229.515 53.8876L227.99 61.9438H220.175Z" fill="#E63312"/>
<path fill-rule="evenodd" clip-rule="evenodd" d="M219.984 49.9486L219.793 51.7389H200.159L200.349 52.634V53.1711L200.54 53.7082L200.731 54.0663L200.921 54.4243L201.112 54.7824L201.303 55.1404L201.493 55.4985L201.875 55.6775L202.256 56.0356L202.637 56.2146L203.018 56.3936L203.4 56.5727L203.781 56.7517H204.162H204.543H205.115H205.687H206.259H206.45H206.64H206.831H207.212L207.403 56.5727L207.593 56.3936L207.784 56.2146L207.975 56.0356L208.546 55.6775L209.118 55.1404L209.881 54.4243H218.65L218.268 55.1404L218.078 55.6775L217.697 56.2146L217.506 56.5727L217.125 56.9307L216.743 57.2888L216.362 57.6468L215.981 58.0049L215.6 58.3629L215.218 58.721L214.837 59.0791L214.456 59.4371L213.884 59.7952L213.312 60.1532L212.74 60.5113L212.168 60.8693L211.597 61.0484L210.834 61.4064L210.071 61.5855L209.309 61.7645L208.546 61.9435L207.784 62.1225L206.831 62.3016H205.878H204.734H203.971H203.209H202.446L201.684 62.1225H200.921L200.159 61.9435L199.396 61.7645L198.634 61.5855L198.062 61.4064L197.49 61.2274L196.918 60.8693L196.346 60.5113L195.774 60.1532L195.393 59.7952L194.821 59.4371L194.44 59.0791L194.249 58.542L193.868 58.1839L193.487 57.8259L193.296 57.4678L193.106 57.1097L192.915 56.7517L192.724 56.3936L192.534 56.0356L192.343 55.4985L192.153 54.9614L191.962 54.4243L191.771 53.8872V53.3502L191.581 52.8131V52.276V51.7389V51.2018V50.3067V50.1276V49.5906V49.0535V48.5164V47.9793L191.771 47.2632L191.962 46.7261L192.153 46.189L192.343 45.6519L192.534 45.1149L192.724 44.5778L192.915 44.0407L193.296 43.5036L193.678 42.9665L194.059 42.4294L194.44 41.8924L194.821 41.3553L195.203 40.9972L195.584 40.6392L195.965 40.2811L196.346 39.923L196.918 39.565L198.253 39.386L198.824 39.0279L199.396 38.6698L199.968 38.4908L200.54 38.1328L201.112 37.9537L201.684 37.7747L202.065 37.5957L202.637 37.4166L203.209 37.2376L203.781 37.0586H204.543H205.115H205.878H206.64H207.593H207.784H207.975H208.165H208.356H209.118H209.69L210.262 37.2376L210.834 37.4166L211.406 37.5957L211.978 37.7747L212.55 37.9537L213.122 38.1328L213.693 38.3118L214.265 38.4908L214.837 38.8489L215.218 39.2069L215.79 39.565L216.172 39.923L216.553 40.2811L216.934 40.6392L217.315 40.9972L217.697 41.3553L218.078 41.7133L218.459 42.0714L218.65 42.6085L218.84 43.1455L219.031 43.5036L219.222 44.0407L219.412 44.5778L219.603 45.1149L219.793 45.6519L219.984 46.189V46.5471V47.0842V47.6213V48.5164V48.6954V48.8744V49.0535V49.2325V49.4115V49.9486ZM200.731 46.9051H212.55V46.3681V45.831L212.359 45.4729L212.168 45.1149L211.978 44.7568L211.787 44.3987L211.406 44.0407L211.025 43.6826L210.643 43.3246L210.262 43.1455L209.881 42.9665L209.5 42.7875L208.928 42.6085L208.356 42.4294H207.784H207.212H206.64H206.259H205.878L205.496 42.6085L205.115 42.7875L204.734 42.9665L204.353 43.1455L203.971 43.3246L203.59 43.5036L203.209 43.8617L202.828 44.2197L202.446 44.5778L202.065 44.9358L201.684 45.2939L201.493 45.6519L201.303 46.01L201.112 46.3681L200.731 46.9051Z" fill="#E63312"/>
<path fill-rule="evenodd" clip-rule="evenodd" d="M162.986 61.9438L167.943 37.417H175.377L174.615 41.1766L175.187 40.2814L175.568 39.9234L175.949 39.7443L176.14 39.3863L176.521 39.0282L176.902 38.8492L177.093 38.4911L177.474 38.3121L177.855 38.1331L178.237 37.9541L178.618 37.775L178.999 37.596L179.571 37.417L179.952 37.2379H180.524L180.905 37.0589H181.477H181.668V36.8799H181.859H182.049H182.24H182.43H182.621H182.812H183.193H183.765L184.146 37.0589H184.527H184.909L185.29 37.2379H185.671L186.052 37.417L186.434 37.596L186.815 37.775L187.196 37.9541L187.577 38.1331L187.768 38.3121L188.149 38.4911L188.34 38.6702L188.721 39.0282L188.912 39.2072L189.102 39.3863L189.484 39.7443L189.674 40.1024L189.865 40.2814L190.056 40.6395L190.246 40.9975L190.437 41.3556V41.5346L190.627 41.8927L190.818 42.2507V42.6088V43.1459V43.5039L191.009 43.862V44.22V44.7571L190.818 45.1152V45.6523V46.3684V47.0845L190.627 47.8006V48.5167L190.437 49.4119L189.102 55.8569L187.768 61.9438H179.762L182.621 48.8748L182.812 48.6957V48.3377V47.9796V47.8006V47.4425L183.002 47.2635V46.9055V46.7264V46.3684L182.812 46.0103V45.6523L182.621 45.4732V45.1152L182.43 44.9361L182.24 44.5781L182.049 44.3991L181.668 44.22L181.477 44.041L181.096 43.862L180.905 43.683H180.524L180.143 43.5039H179.762H179.38H178.999L178.427 43.683H178.046L177.474 43.862L177.093 44.22L176.521 44.3991L176.14 44.7571L175.759 45.1152L175.377 45.4732L174.996 46.0103L174.615 46.5474L174.424 47.0845L174.043 47.6216L173.852 48.3377L173.662 49.0538L173.471 49.7699L173.28 50.128V50.486V50.665L173.09 51.0231V51.3812V51.5602L172.899 51.9182V52.0973L170.802 61.9438H162.986Z" fill="#E63312"/>
<path fill-rule="evenodd" clip-rule="evenodd" d="M148.689 42.9668L149.833 37.417H154.218L155.743 29.7188H163.368L162.033 37.417H166.227L165.274 42.9668H160.699L157.077 61.9438H149.261L153.074 42.9668H148.689Z" fill="#E63312"/>
<path fill-rule="evenodd" clip-rule="evenodd" d="M128.864 61.9438L133.63 37.417H140.874L139.921 41.5346L140.683 40.6395L140.874 40.2814L141.064 40.1024L141.255 39.7443L141.446 39.5653L141.636 39.2072L142.017 39.0282L142.208 38.8492L142.589 38.4911L142.971 38.3121L143.161 38.1331L143.543 37.9541L143.924 37.775L144.305 37.596L144.686 37.417L145.068 37.2379H145.449L145.639 37.0589H146.021H146.402L146.593 36.8799H146.974H147.164H147.546H147.927H148.689L146.974 44.5781H146.593L146.402 44.3991H146.211H146.021H145.83H145.639H145.449H145.258H145.068L144.496 44.5781H143.924L143.352 44.7571L142.78 44.9361L142.399 45.1152L141.827 45.4732L141.446 45.6523L141.064 46.0103L140.683 46.5474L140.302 46.9055L140.111 47.4425L139.921 47.9796L139.539 48.6957L139.349 49.4119L139.158 50.128L138.967 50.8441L138.777 51.2021V51.5602L138.586 51.9182V52.4553L138.396 52.8134V53.1714V53.5295L138.205 53.8876L136.68 61.9438H128.864Z" fill="#E63312"/>
<path fill-rule="evenodd" clip-rule="evenodd" d="M120.858 39.744L121.811 40.6392L122.383 37.5957H130.008L125.052 62.1225H117.617L117.998 59.7952L117.427 60.3323L117.045 60.5113L116.855 60.6903L116.473 60.8693L116.092 61.0484L115.711 61.2274L115.33 61.4064L114.948 61.5855L114.567 61.7645L114.186 61.9435L113.805 62.1225L113.423 62.3016H113.042H112.47H112.089H111.708H111.136H110.564H109.992H109.42H108.848L108.276 62.1225H107.895L107.323 61.9435L106.751 61.7645L106.18 61.5855L105.608 61.4064L105.226 61.2274L105.036 60.8693L104.654 60.5113L104.273 60.1532L103.892 59.7952L103.511 59.4371L103.129 59.0791L102.748 58.721L102.367 58.3629L101.986 58.0049L101.604 57.4678L101.414 56.9307L101.223 56.3936L101.033 55.8565V55.4985L100.842 54.9614L100.651 54.4243L100.461 53.7082V53.1711V52.455V51.7389V51.0228V50.3067V49.5906V48.8744L100.651 48.1583L100.842 47.4422L101.033 46.7261L101.223 46.01L101.414 45.2939L101.604 44.5778L101.986 43.8617L102.367 43.3246L102.939 42.9665L103.32 42.4294L103.701 41.8924L104.083 41.3553L104.464 40.8182L104.845 40.2811L105.417 39.923L105.989 39.565L106.561 39.2069L107.133 38.8489L107.705 38.4908L108.276 38.1328L108.848 37.9537L109.42 37.7747L109.992 37.5957L110.564 37.4166L111.136 37.2376L111.708 37.0586H112.28H113.042H114.376H114.948H115.33H115.902H116.473L116.855 37.2376L117.427 37.4166L117.808 37.5957L118.189 37.7747L118.57 37.9537L118.952 38.1328L119.333 38.3118L119.714 38.6698L120.095 38.8489L120.477 39.2069L120.858 39.744ZM108.086 50.6647V51.3808V51.9179L108.276 52.455L108.467 52.9921L108.658 53.5292L108.848 54.0663L109.23 54.4243L109.611 54.7824L109.992 55.1404L110.373 55.4985L110.755 55.6775L111.326 55.8565L111.898 56.0356L112.47 56.2146H113.042H113.995H114.376H114.758H114.948H115.33H115.711L115.902 56.0356L116.283 55.8565L116.473 55.6775L116.855 55.4985L117.045 55.3195L117.236 55.1404L117.427 54.9614L117.617 54.7824L117.808 54.6033L117.998 54.4243L118.189 54.2453L118.38 54.0663L118.57 53.7082L118.761 53.3502L118.952 52.9921L119.142 52.634L119.333 52.276L119.523 51.9179L119.714 51.5599V51.2018V50.8438V50.4857V50.1276V49.7696V49.4115V49.0535V48.5164V47.9793L119.523 47.4422V46.5471L119.333 46.01L119.142 45.4729L118.952 44.9358L118.57 44.7568L118.189 44.3987L117.808 44.0407L117.427 43.6826L117.045 43.5036L116.283 43.3246L115.711 43.1455H115.139H114.567H113.995H113.423L112.851 43.3246L112.28 43.5036L111.708 43.6826L111.136 44.0407L110.564 44.3987V44.9358L110.183 45.4729L109.801 46.01L109.42 46.5471L109.039 47.0842L108.848 47.6213L108.658 48.3374L108.467 49.0535L108.276 49.7696V49.9486V50.1276V50.3067L108.086 50.6647Z" fill="#E63312"/>
<path fill-rule="evenodd" clip-rule="evenodd" d="M67.1009 70.0001L73.5822 37.417H80.6354L80.0636 40.4604L81.2073 39.3863L81.5886 39.0282L81.9698 38.6702L82.3511 38.3121L82.7323 38.1331L83.1136 37.9541L83.4949 37.775L83.8761 37.596L84.2574 37.417L84.6386 37.2379L85.2105 37.0589L85.5918 36.8799H86.1636H86.7355H87.3074H88.4512H89.0231H89.5949H90.1668L90.7387 37.0589L91.3106 37.2379L91.8825 37.417L92.4543 37.596L93.0262 37.775L93.4075 37.9541L93.7887 38.1331L94.17 38.3121L94.5512 38.6702L94.9325 39.0282L95.3138 39.3863L95.695 39.7443L96.0763 40.1024L96.4575 40.4604L96.8388 40.8185L97.22 41.1766L97.6013 41.5346L97.7919 42.0717L97.9825 42.6088L98.1732 43.1459L98.3638 43.683L98.5544 44.22L98.7451 44.7571L98.9357 45.2942L99.1263 45.8313L99.3169 46.3684V46.9055V47.4425L99.5076 48.1587V48.8748V49.5909V50.307L99.3169 51.0231L98.3638 51.9182L98.1732 52.6344L97.9825 53.3505L97.7919 54.0666L97.6013 54.7827L97.22 55.4988L96.8388 56.0359L96.4575 56.573L96.0763 57.1101L95.695 57.6472L95.3138 58.1842L94.9325 58.7213L94.17 59.0794L93.5981 59.4374L93.0262 59.7955L92.4543 60.1535L91.8825 60.5116L91.5012 61.0487L90.9293 61.4067L90.3574 61.7648H89.5949L89.0231 61.9438L88.2605 62.1229L87.6887 62.3019L86.9261 62.4809H86.1636H85.4011H84.2574H83.8761H83.3042H82.923H82.5417L82.1605 62.3019L81.7792 62.1229L81.398 61.9438L81.0167 61.7648L80.6354 61.5858L80.0636 61.4067L79.4917 61.2277L79.1104 61.0487L78.7292 60.8697L78.3479 60.5116L78.1573 60.3326L77.0135 59.4374L74.9166 70.0001H67.1009ZM78.7292 49.7699V50.486V51.2021V51.7392L78.9198 52.2763L79.1104 52.8134L79.301 53.3505L79.4917 53.5295L79.6823 53.7085L79.8729 53.8876L80.0636 54.0666L80.2542 54.2456L80.4448 54.4246L80.6354 54.6037L80.8261 54.7827L81.0167 54.9617L81.2073 55.1408L81.5886 55.3198L81.7792 55.4988L81.9698 55.6778L82.1605 55.8569H82.5417H82.7323H83.3042H83.8761H84.2574H84.6386H85.0199H85.4011H85.7824L86.1636 55.6778L86.3543 55.4988L86.7355 55.3198L86.9261 55.1408L87.3074 54.9617L87.498 54.7827L87.6887 54.6037L87.8793 54.4246L88.0699 54.2456L88.2605 54.0666L88.4512 53.8876L88.6418 53.7085L88.8324 53.5295L89.0231 53.3505L89.2137 52.9924L89.4043 52.6344L89.5949 52.2763L89.7856 51.9182L89.9762 51.5602V51.2021L90.1668 50.8441V50.486V50.128V49.7699V49.4119V49.0538V48.6957V48.1587V47.6216L89.9762 47.0845L89.7856 46.5474L89.5949 46.0103V45.4732L89.2137 45.1152L89.0231 44.7571L88.6418 44.3991L88.2605 44.041L87.8793 43.862L87.498 43.683L86.9261 43.5039L86.3543 43.3249H85.7824H84.6386H84.0667L83.8761 43.5039L83.3042 43.683L82.923 43.862L82.5417 44.041L82.1605 44.22L81.7792 44.3991L81.2073 44.7571L80.8261 45.1152L80.4448 45.4732L80.0636 45.8313L79.8729 46.1893L79.6823 46.7264L79.4917 47.2635L79.301 47.8006V47.9796L79.1104 48.3377V48.5167V48.6957V48.8748V49.0538V49.2328V49.4119L78.7292 49.7699Z" fill="#E63312"/>
<path fill-rule="evenodd" clip-rule="evenodd" d="M133.439 32.9412L138.396 7.87724H146.402L141.446 32.9412H133.439ZM138.967 5.54987L139.921 0H147.927L146.783 5.54987H138.967Z" fill="#1D1D1B"/>
<path fill-rule="evenodd" clip-rule="evenodd" d="M103.129 13.6061L104.273 7.87724H109.039L110.564 0H118.38L117.045 7.87724H121.62L120.477 13.6061H115.711L111.898 32.9412H103.892L107.895 13.6061H103.129Z" fill="#1D1D1B"/>
<path fill-rule="evenodd" clip-rule="evenodd" d="M118.761 13.6061L119.714 7.87724H124.48L126.195 0H134.011L132.486 7.87724H137.061L135.917 13.6061H131.152L127.53 32.9412H119.523L123.336 13.6061H118.761Z" fill="#1D1D1B"/>
<path fill-rule="evenodd" clip-rule="evenodd" d="M76.0604 21.1255L78.7291 7.87744H86.7355L84.0667 21.4836L83.8761 21.8416V22.1997V22.3787V22.7368L83.6855 22.9158V23.2739V23.4529V23.8109V24.169V24.348V24.7061L83.8761 24.8851V25.2432V25.4222L84.0667 25.6012L84.2573 25.7803L84.448 25.9593L84.6386 26.1383L84.8292 26.3173L85.0198 26.4964H85.4011L85.5917 26.6754H85.973L86.1636 26.8544H86.3542H86.5449H86.7355H86.9261H87.3074H87.6886L88.0699 26.6754L88.4512 26.4964L89.023 26.3173L89.4043 26.1383L89.7855 25.7803L89.9762 25.4222L90.3574 25.0641L90.7387 24.7061L90.9293 24.169L91.3106 23.6319L91.5012 23.0948L91.6918 22.5578L91.8824 21.8416L92.0731 21.1255L92.2637 20.9465V20.5884V20.4094V20.2304L92.4543 19.8723V19.6933V19.3352V19.1562L94.7419 8.05647H102.748L97.7919 32.9414H90.1668L90.7387 30.0769L89.7855 30.9721L89.4043 31.3301L89.023 31.5092L88.6418 31.6882L88.4512 32.0462L87.8793 32.2253L87.6886 32.4043L87.1168 32.5833L86.7355 32.7624L86.3542 32.9414L85.973 33.1204H85.5917L85.2105 33.2994H84.6386L84.2573 33.4785H83.8761H83.3042H82.7323H82.1604H81.5886L81.0167 33.2994L80.6354 33.1204L80.0635 32.9414L79.6823 32.7624L79.1104 32.5833L78.7291 32.4043L78.3479 32.0462L77.776 31.6882L77.5854 31.5092L77.2041 31.1511L76.8229 30.793L76.6322 30.435L76.251 29.8979L76.0604 29.5398L75.8697 29.1818L75.6791 28.6447L75.4885 28.1076V27.7496V27.2125L75.2979 26.6754V26.1383L75.4885 25.7803V25.2432V24.7061V24.169L75.6791 23.4529L75.8697 22.7368V22.0207L76.0604 21.1255Z" fill="#1D1D1B"/>
<path fill-rule="evenodd" clip-rule="evenodd" d="M56.6164 32.9414L61.5727 7.87742H69.1978L68.2446 12.1741L69.0071 11.0999L69.1978 10.9209L69.3884 10.5628L69.579 10.3838L69.7697 10.0258L70.1509 9.84673L70.3415 9.48867L70.7228 9.30964L70.9134 9.13061L71.2947 8.95159L71.6759 8.59353L72.0572 8.4145L72.2478 8.23547L72.6291 8.05644H73.0103L73.3916 7.87742L73.7728 7.69839H74.1541L74.5353 7.51936H74.726H75.1072L75.2979 7.34033H75.6791H76.0604H76.251H77.3948L75.6791 15.2176H75.1072H74.9166L74.726 15.0385H74.5353H74.3447H74.1541H73.9635H73.7728H73.5822L73.0103 15.2176H72.2478L71.8666 15.3966L71.2947 15.5756L70.7228 15.7547L70.3415 16.1127L69.7697 16.4708L69.3884 16.8288L69.1978 17.1869L68.8165 17.5449L68.4353 18.261L68.2446 18.7981L67.8634 19.3352L67.6728 20.0513L67.4821 20.7674L67.2915 21.6626L67.1009 22.0206V22.3787L66.9102 22.7368V23.2738L66.7196 23.6319V23.9899V24.348L66.529 24.7061L65.004 32.9414H56.6164Z" fill="#1D1D1B"/>
<path fill-rule="evenodd" clip-rule="evenodd" d="M56.9976 20.5881L56.807 22.3784H36.6005L36.7911 23.4525V23.9896L36.9817 24.5267L37.1724 24.8848L37.363 25.2428L37.5536 25.6009L37.9349 25.9589L38.1255 26.317L38.5067 26.496L38.888 26.8541L39.2693 27.0331L39.6505 27.2121L40.0318 27.3912L40.413 27.5702H40.7943H41.3662H41.938H42.5099H43.0818H43.2724H43.4631H43.8443L44.0349 27.3912H44.2256L44.6068 27.2121L44.7975 27.0331L44.9881 26.8541L45.56 26.496L46.1318 25.9589L46.8944 25.2428H55.8538L55.4726 25.9589L55.282 26.6751L55.0913 27.2121L54.7101 27.5702L54.3288 28.1073L53.9476 28.4653L53.7569 28.6444L53.3757 29.1814L52.9944 29.5395L52.6132 29.8976L52.2319 30.2556L51.66 30.6137L51.0882 30.9717L50.5163 31.3298L49.9444 31.6878L49.5631 31.8669L48.9913 32.0459L48.2287 32.404L47.4662 32.762L46.7037 32.941L45.9412 33.1201L45.1787 33.2991L44.2256 33.4781H43.2724H42.1287H41.1755H40.2224H39.4599H38.6974L37.9349 33.2991L37.1724 33.1201L36.4098 32.762L35.6473 32.583L35.0754 32.404L34.5036 32.2249L33.9317 31.8669L33.3598 31.5088L32.7879 31.1508L32.216 30.7927L32.0254 30.4346L31.6442 30.0766L31.2629 29.7185L30.8816 29.3605L30.5004 29.0024V28.6444L30.3098 28.2863L30.1191 27.9283L29.9285 27.5702L29.7379 27.0331L29.5473 26.496L29.3566 25.9589L29.166 25.4219L28.7847 25.0638V24.5267V23.9896L28.5941 23.4525V22.9155V22.3784V20.9462V20.4091V19.872L28.7847 19.3349V18.7978L28.9754 18.0817L29.166 17.3656L29.3566 16.8285L29.5473 16.2914L29.7379 15.7543L29.9285 15.2173L30.1191 14.6802L30.5004 14.3221L30.8816 13.785L31.2629 13.2479L31.6442 12.7109L32.0254 12.1738L32.4067 11.6367L32.7879 11.2786L33.1692 10.9206L33.5504 10.5625L34.1223 10.2045L34.6942 9.84641L35.2661 9.48835L35.838 9.1303L36.2192 8.95127L36.7911 8.77224L37.363 8.59321L37.9349 8.41418L38.5067 8.23516L39.0786 8.05613L39.6505 7.8771L40.413 7.69807L41.1755 7.51904H41.938H42.7005H43.4631H43.6537H43.8443H44.0349H44.6068H44.7975H44.9881H45.1787H45.9412L46.5131 7.69807L47.085 7.8771L47.6569 8.05613L48.2287 8.23516L48.8006 8.41418L49.3725 8.59321L49.9444 8.77224L50.5163 8.95127L51.0882 9.30932L51.66 9.66738L52.2319 10.0254L52.6132 10.3835L52.9944 10.7415H53.5663L53.9476 11.0996L54.3288 11.4577L54.7101 11.8157L55.0913 12.1738L55.282 12.7109L55.4726 13.2479L55.6632 13.606L55.8538 14.1431L56.0445 14.6802L56.2351 15.2173L56.4257 15.7543L56.807 16.1124V16.6495V17.1866V17.7236V19.5139V19.693V19.872V20.051V20.23L56.9976 20.5881ZM37.363 17.5446H49.3725V17.0075V16.4705L48.9913 16.1124L48.8006 15.7543L48.61 15.3963L48.2287 15.0382L47.8475 14.6802L47.6569 14.3221L47.2756 13.9641L46.8944 13.785L46.5131 13.606L45.9412 13.427L45.3693 13.2479H44.7975H44.2256H43.6537H43.0818H42.7005H42.3193H41.938L41.5568 13.427L41.1755 13.606L40.7943 13.785L40.413 13.9641L40.0318 14.1431L39.6505 14.5011L39.2693 14.8592L38.888 15.2173L38.5067 15.5753L38.1255 15.9334V16.2914L37.9349 16.6495L37.7442 17.0075L37.363 17.5446Z" fill="#1D1D1B"/>
<path fill-rule="evenodd" clip-rule="evenodd" d="M27.2597 16.1127V16.2917H27.4504V16.4708V16.8288V17.0079V17.3659V17.5449H27.0691H25.9253H24.5909H23.0659H21.5409H20.3971H19.444H19.0627V17.3659L18.8721 17.1869V17.0079L18.6815 16.8288V16.6498V16.4708L18.3002 16.1127L18.1096 15.9337L17.919 15.5756L17.7284 15.3966L17.5377 15.2176L17.3471 15.0385L17.1565 14.8595L16.9658 14.6805L16.5846 14.5015L16.394 14.3224H16.2033L15.8221 14.1434H15.6315L15.2502 13.9644H15.0596H14.6783H14.2971H13.9158L13.5346 14.1434H13.1533L12.772 14.3224H12.3908L12.0095 14.5015L11.8189 14.6805L11.4376 15.0385L11.0564 15.2176L10.6751 15.5756L10.4845 15.7547L10.1033 16.1127L9.722 16.4708L9.53137 16.8288L9.15012 17.3659L8.95949 17.724L8.76886 18.261L8.57824 18.7981L8.38761 19.3352L8.19698 19.6933V20.2304L8.00635 20.7674V21.3045V22.0206L8.19698 22.5577V23.0948L8.38761 23.6319L8.57824 24.169L8.76886 24.527L9.15012 25.0641L9.34075 25.4222L9.722 25.7802L10.1033 25.9593L10.4845 26.3173L11.0564 26.4963L11.4376 26.6754H12.0095L12.3908 26.8544H12.9627H13.5346L14.1064 26.6754H14.6783L15.2502 26.3173L15.6315 26.1383L16.2033 25.9593L16.5846 25.6012L17.1565 25.2431V25.0641L17.3471 24.8851V24.7061H17.5377L17.7284 24.527L17.919 24.348V24.169L18.4909 23.2738L18.6815 22.3787H27.0691L26.6878 23.4529L26.3066 24.8851L26.116 25.4222L25.9253 25.7802L25.7347 26.3173L25.5441 26.6754L25.1628 27.2125L24.9722 27.5705L24.7816 27.9286L24.4003 28.4657L24.0191 28.8237L23.8284 29.1818L23.4472 29.5398L23.0659 29.8979L22.6847 30.2559L22.3034 30.435L21.9222 30.793L21.3503 31.1511L20.969 31.5091L20.5878 31.6882L20.0159 31.8672L19.444 32.2252L19.0627 32.4043L18.4909 32.5833L17.919 32.7623L17.3471 32.9414L16.9658 33.1204L16.394 33.2994H15.8221L15.2502 33.4784H14.4877H13.9158L13.3439 33.6575H12.5814H12.0095L11.247 33.4784H10.4845L9.91263 33.2994H9.15012L8.57824 33.1204L8.00635 32.9414L7.43447 32.7623L6.86259 32.4043L6.29071 32.2252L5.71882 31.8672L5.14694 31.5091L4.57506 31.3301L4.1938 30.972L3.62192 30.435L3.24067 30.0769L2.85941 29.7188L2.47816 29.1818L2.0969 28.6447L1.71565 28.2866L1.52502 27.7495L1.14376 27.2125L0.953137 26.6754L0.76251 26.1383L0.571882 25.6012L0.381255 24.8851L0.190627 24.348V23.6319L0 23.0948V22.3787V21.6626V20.9465V20.5884V20.2304L0.190627 19.6933V19.3352L0.381255 18.7981V18.4401L0.571882 18.082V17.5449L0.76251 17.0079L0.953137 16.4708L1.14376 15.9337L1.52502 15.3966L1.71565 14.8595L2.0969 14.3224L2.28753 13.7853L2.66878 13.2483L3.05004 12.8902L3.24067 12.3531L3.62192 11.9951L4.00318 11.458L4.57506 11.0999L4.95631 10.7419L5.33757 10.3838L5.71882 10.0258L6.29071 9.6677L6.86259 9.48867L7.24384 9.13061L7.81573 8.77256L8.38761 8.59353L8.95949 8.4145L9.34075 8.23547L9.91263 8.05644L10.4845 7.87742L11.247 7.69839L11.8189 7.51936H12.3908L12.9627 7.34033H13.7252H14.2971H14.8689H15.6315H16.2033H16.7752L17.3471 7.51936H17.919L18.4909 7.69839H19.0627L19.444 7.87742L20.0159 8.05644L20.5878 8.23547L20.969 8.4145L21.5409 8.77256L21.9222 8.95159L22.3034 9.13061L22.8753 9.48867L23.2566 9.6677L23.6378 10.0258L24.0191 10.3838L24.4003 10.5628L24.7816 11.0999L24.9722 11.279L25.3535 11.637L25.5441 12.1741L25.9253 12.5321L26.116 12.8902L26.3066 13.4273L26.4972 13.7853L26.6878 14.1434L26.8785 14.6805L27.0691 15.2176L27.2597 15.5756V16.1127Z" fill="#1D1D1B"/>
</g>
<defs>
<clipPath id="clip0_260_258">
<rect width="240" height="70" fill="white"/>
</clipPath>
</defs>
</svg>
