<svg width="191" height="47" viewBox="0 0 191 47" fill="none" xmlns="http://www.w3.org/2000/svg">
<path d="M34.9505 10.9103C34.5345 10.4942 34.1184 10.0782 33.7024 9.66212C32.4542 8.33075 31.1228 6.99938 29.4586 6.16727C27.5448 5.16873 25.4645 5.41836 23.3842 5.41836C20.2222 5.41836 12.3172 5.41836 7.65735 5.41836L10.8194 9.66212C16.5609 9.66212 25.5477 9.66212 29.7083 9.66212C31.4557 9.66212 32.9535 9.99497 34.3681 10.9103C34.6177 10.9935 34.8673 10.9935 34.9505 10.9103Z" fill="#A83552"/>
<path d="M38.4448 17.7345C38.0288 17.3184 37.6127 16.9024 37.1966 16.4863C35.9485 15.155 34.6171 13.8236 32.9529 12.9915C31.039 11.9929 28.9588 12.2426 26.8785 12.2426C24.1325 12.2426 17.5589 12.2426 12.899 12.2426L16.0611 16.4863C21.7194 16.4863 29.458 16.4863 33.2857 16.4863C35.0332 16.4863 36.531 16.8192 37.9456 17.7345C38.112 17.8177 38.2784 17.8177 38.4448 17.7345Z" fill="#A83552"/>
<path d="M42.3552 24.3912C41.9391 23.9752 41.5231 23.5591 41.107 23.1431C39.8588 21.8117 38.5275 20.4803 36.8633 19.6482C34.9494 18.6497 32.8691 18.8993 30.7888 18.8993C28.2093 18.8993 22.551 18.8993 17.9744 18.8993L21.1364 23.1431C26.6283 23.1431 33.618 23.1431 37.1129 23.1431C38.8603 23.1431 40.3581 23.4759 41.7727 24.3912C42.0223 24.4745 42.1887 24.5577 42.3552 24.3912Z" fill="#A83552"/>
<path d="M7.32275 35.6244C7.73881 36.0405 8.15486 36.4565 8.57092 36.8726C9.81908 38.204 11.1505 39.5353 12.8147 40.3674C14.7285 41.366 16.8088 41.1163 18.8891 41.1163H34.6159L31.4539 36.8726C25.7124 36.8726 16.7256 36.8726 12.565 36.8726C10.8176 36.8726 9.31981 36.5397 7.90523 35.6244C7.6556 35.5412 7.48918 35.5412 7.32275 35.6244Z" fill="#A83552"/>
<path d="M3.82983 28.8022C4.24589 29.2182 4.66194 29.6343 5.078 30.0503C6.32616 31.3817 7.65753 32.7131 9.32175 33.5452C11.2356 34.5437 13.3159 34.2941 15.3962 34.2941H29.3756L26.2136 30.0503C20.5552 30.0503 12.8166 30.0503 8.98891 30.0503C7.24148 30.0503 5.74368 29.7175 4.32909 28.8022C4.16267 28.7189 3.99626 28.7189 3.82983 28.8022Z" fill="#A83552"/>
<path d="M0.00012207 22.0609C0.416177 22.477 0.832232 22.8931 1.24829 23.3091C2.49645 24.6405 3.82783 25.9719 5.49205 26.804C7.4059 27.8025 9.48617 27.5529 11.5664 27.5529H24.3809L21.2189 23.3091C15.727 23.3091 8.73728 23.3091 5.24242 23.3091C3.49499 23.3091 1.99718 22.9763 0.582596 22.0609C0.332963 21.9777 0.166544 21.9777 0.00012207 22.0609Z" fill="#A83552"/>
<path d="M51.5953 13.6899V32.9342H55.8269V24.9832H63.8857V21.6949H55.8269V17.2477H65.1256V13.6899H51.5953Z" fill="#A83552"/>
<path d="M75.7389 24.4711H69.5128C69.5307 24.2015 69.5846 23.8961 69.6745 23.5547C69.7823 23.2133 69.953 22.8898 70.1866 22.5844C70.4381 22.2789 70.7616 22.0273 71.1569 21.8297C71.5702 21.6141 72.0823 21.5062 72.6932 21.5062C73.6276 21.5062 74.3193 21.7578 74.7686 22.2609C75.2357 22.764 75.5592 23.5008 75.7389 24.4711ZM69.5128 26.8968H79.5661C79.638 25.8187 79.5482 24.7855 79.2966 23.7972C79.0451 22.809 78.6318 21.9285 78.0568 21.1559C77.4998 20.3832 76.781 19.7723 75.9006 19.3231C75.0201 18.8559 73.9869 18.6223 72.801 18.6223C71.7409 18.6223 70.7706 18.811 69.8901 19.1883C69.0276 19.5656 68.2819 20.0867 67.653 20.7516C67.0241 21.3984 66.539 22.1711 66.1976 23.0695C65.8562 23.9679 65.6855 24.9382 65.6855 25.9804C65.6855 27.0585 65.8472 28.0468 66.1706 28.9452C66.512 29.8436 66.9882 30.6163 67.5991 31.2632C68.21 31.91 68.9557 32.4131 69.8362 32.7725C70.7167 33.1139 71.7049 33.2846 72.801 33.2846C74.3822 33.2846 75.7299 32.9252 76.8439 32.2065C77.958 31.4878 78.7845 30.2929 79.3236 28.6218H75.9545C75.8287 29.053 75.4873 29.4663 74.9303 29.8616C74.3732 30.239 73.7084 30.4276 72.9358 30.4276C71.8577 30.4276 71.0311 30.1491 70.4561 29.5921C69.8811 29.0351 69.5667 28.1366 69.5128 26.8968Z" fill="#A83552"/>
<path d="M80.8658 23.2851C80.9197 22.3867 81.1443 21.641 81.5396 21.0481C81.9349 20.4551 82.438 19.9789 83.049 19.6196C83.6599 19.2602 84.3427 19.0086 85.0974 18.8649C85.87 18.7032 86.6427 18.6223 87.4153 18.6223C88.1161 18.6223 88.8258 18.6762 89.5446 18.784C90.2633 18.8739 90.9192 19.0625 91.5121 19.35C92.1051 19.6375 92.5902 20.0418 92.9676 20.5629C93.3449 21.066 93.5336 21.7398 93.5336 22.5844V29.8347C93.5336 30.4636 93.5695 31.0655 93.6414 31.6405C93.7133 32.2155 93.839 32.6467 94.0187 32.9342H90.1375C90.0657 32.7186 90.0028 32.503 89.9489 32.2874C89.9129 32.0538 89.886 31.8202 89.868 31.5866C89.2571 32.2155 88.5383 32.6557 87.7118 32.9073C86.8852 33.1588 86.0407 33.2846 85.1782 33.2846C84.5134 33.2846 83.8935 33.2038 83.3185 33.042C82.7435 32.8803 82.2404 32.6288 81.8091 32.2874C81.3779 31.946 81.0365 31.5147 80.7849 30.9936C80.5513 30.4725 80.4345 29.8526 80.4345 29.1339C80.4345 28.3433 80.5693 27.6964 80.8388 27.1933C81.1263 26.6722 81.4857 26.2589 81.9169 25.9535C82.3661 25.648 82.8693 25.4234 83.4263 25.2796C84.0013 25.1179 84.5763 24.9921 85.1513 24.9023C85.7263 24.8125 86.2923 24.7406 86.8493 24.6867C87.4063 24.6328 87.9005 24.5519 88.3317 24.4441C88.7629 24.3363 89.1043 24.1836 89.3559 23.9859C89.6075 23.7703 89.7243 23.4648 89.7063 23.0695C89.7063 22.6562 89.6344 22.3328 89.4907 22.0992C89.3649 21.8477 89.1852 21.659 88.9516 21.5332C88.736 21.3895 88.4754 21.2996 88.17 21.2637C87.8825 21.2098 87.568 21.1828 87.2266 21.1828C86.472 21.1828 85.879 21.3445 85.4477 21.668C85.0165 21.9914 84.7649 22.5305 84.6931 23.2851H80.8658ZM89.7063 26.1152C89.5446 26.2589 89.3379 26.3757 89.0864 26.4656C88.8528 26.5374 88.5922 26.6003 88.3047 26.6542C88.0352 26.7081 87.7477 26.7531 87.4423 26.789C87.1368 26.8249 86.8313 26.8699 86.5259 26.9238C86.2384 26.9777 85.9509 27.0495 85.6634 27.1394C85.3938 27.2292 85.1513 27.355 84.9356 27.5167C84.738 27.6605 84.5763 27.8491 84.4505 28.0827C84.3247 28.3163 84.2618 28.6128 84.2618 28.9722C84.2618 29.3136 84.3247 29.6011 84.4505 29.8347C84.5763 30.0683 84.747 30.2569 84.9626 30.4007C85.1782 30.5264 85.4298 30.6163 85.7173 30.6702C86.0048 30.7241 86.3013 30.7511 86.6067 30.7511C87.3614 30.7511 87.9454 30.6253 88.3586 30.3737C88.7719 30.1222 89.0774 29.8257 89.275 29.4843C89.4727 29.1249 89.5895 28.7655 89.6254 28.4062C89.6793 28.0468 89.7063 27.7593 89.7063 27.5437V26.1152Z" fill="#A83552"/>
<path d="M100.547 18.9996V14.822H96.7199V18.9996H94.402V21.5602H96.7199V29.7808C96.7199 30.4815 96.8367 31.0475 97.0703 31.4788C97.3039 31.91 97.6183 32.2424 98.0136 32.476C98.4269 32.7096 98.8941 32.8624 99.4152 32.9342C99.9542 33.0241 100.52 33.069 101.113 33.069C101.491 33.069 101.877 33.06 102.272 33.042C102.667 33.0241 103.027 32.9881 103.35 32.9342V29.9694C103.171 30.0054 102.982 30.0323 102.784 30.0503C102.587 30.0682 102.38 30.0772 102.164 30.0772C101.517 30.0772 101.086 29.9694 100.871 29.7538C100.655 29.5382 100.547 29.1069 100.547 28.4601V21.5602H103.35V18.9996H100.547Z" fill="#A83552"/>
<path d="M104.363 13.6899V32.9342H108.19V25.63C108.19 24.2105 108.424 23.1953 108.891 22.5844C109.358 21.9555 110.113 21.641 111.155 21.641C112.071 21.641 112.709 21.9285 113.068 22.5035C113.428 23.0605 113.607 23.914 113.607 25.064V32.9342H117.435V24.3632C117.435 23.5008 117.354 22.7191 117.192 22.0184C117.048 21.2996 116.788 20.6977 116.411 20.2125C116.033 19.7094 115.512 19.3231 114.847 19.0535C114.2 18.766 113.365 18.6223 112.341 18.6223C111.622 18.6223 110.885 18.811 110.131 19.1883C109.376 19.5477 108.756 20.1317 108.271 20.9402H108.19V13.6899H104.363Z" fill="#A83552"/>
<path d="M128.911 24.4711H122.684C122.702 24.2015 122.756 23.8961 122.846 23.5547C122.954 23.2133 123.125 22.8898 123.358 22.5844C123.61 22.2789 123.933 22.0273 124.329 21.8297C124.742 21.6141 125.254 21.5062 125.865 21.5062C126.799 21.5062 127.491 21.7578 127.94 22.2609C128.407 22.764 128.731 23.5008 128.911 24.4711ZM122.684 26.8968H132.738C132.81 25.8187 132.72 24.7855 132.468 23.7972C132.217 22.809 131.803 21.9285 131.229 21.1559C130.671 20.3832 129.953 19.7723 129.072 19.3231C128.192 18.8559 127.159 18.6223 125.973 18.6223C124.913 18.6223 123.942 18.811 123.062 19.1883C122.199 19.5656 121.454 20.0867 120.825 20.7516C120.196 21.3984 119.711 22.1711 119.369 23.0695C119.028 23.9679 118.857 24.9382 118.857 25.9804C118.857 27.0585 119.019 28.0468 119.342 28.9452C119.684 29.8436 120.16 30.6163 120.771 31.2632C121.382 31.91 122.127 32.4131 123.008 32.7725C123.888 33.1139 124.877 33.2846 125.973 33.2846C127.554 33.2846 128.902 32.9252 130.016 32.2065C131.13 31.4878 131.956 30.2929 132.495 28.6218H129.126C129 29.053 128.659 29.4663 128.102 29.8616C127.545 30.239 126.88 30.4276 126.107 30.4276C125.029 30.4276 124.203 30.1491 123.628 29.5921C123.053 29.0351 122.738 28.1366 122.684 26.8968Z" fill="#A83552"/>
<path d="M134.199 18.9996V32.9342H138.026V26.6542C138.026 26.0253 138.089 25.4414 138.215 24.9023C138.341 24.3632 138.548 23.8961 138.835 23.5008C139.141 23.0875 139.536 22.764 140.021 22.5305C140.506 22.2969 141.099 22.1801 141.8 22.1801C142.033 22.1801 142.276 22.198 142.528 22.234C142.779 22.2519 142.995 22.2789 143.174 22.3148V18.7571C142.869 18.6672 142.59 18.6223 142.339 18.6223C141.854 18.6223 141.387 18.6942 140.937 18.8379C140.488 18.9817 140.066 19.1883 139.671 19.4578C139.275 19.7094 138.925 20.0238 138.619 20.4012C138.314 20.7606 138.071 21.1559 137.892 21.5871H137.838V18.9996H134.199Z" fill="#A83552"/>
<path d="M148.502 29.3765V17.2477H151.521C152.563 17.2477 153.435 17.4004 154.135 17.7059C154.854 17.9934 155.429 18.4157 155.86 18.9727C156.292 19.5297 156.597 20.2035 156.777 20.9941C156.974 21.7668 157.073 22.6383 157.073 23.6086C157.073 24.6687 156.939 25.5671 156.669 26.3038C156.399 27.0406 156.04 27.6425 155.591 28.1097C155.142 28.5589 154.63 28.8823 154.055 29.08C153.48 29.2776 152.887 29.3765 152.276 29.3765H148.502ZM144.271 13.6899V32.9342H152.572C154.046 32.9342 155.321 32.6917 156.399 32.2065C157.496 31.7034 158.403 31.0206 159.122 30.1581C159.858 29.2956 160.406 28.2714 160.766 27.0855C161.125 25.8996 161.305 24.6058 161.305 23.2043C161.305 21.6051 161.08 20.2125 160.631 19.0266C160.2 17.8407 159.589 16.8524 158.798 16.0618C158.026 15.2712 157.1 14.6782 156.022 14.2829C154.962 13.8876 153.812 13.6899 152.572 13.6899H144.271Z" fill="#A83552"/>
<path d="M172.415 24.4711H166.189C166.207 24.2015 166.261 23.8961 166.351 23.5547C166.459 23.2133 166.629 22.8898 166.863 22.5844C167.114 22.2789 167.438 22.0273 167.833 21.8297C168.246 21.6141 168.758 21.5062 169.369 21.5062C170.304 21.5062 170.996 21.7578 171.445 22.2609C171.912 22.764 172.235 23.5008 172.415 24.4711ZM166.189 26.8968H176.242C176.314 25.8187 176.224 24.7855 175.973 23.7972C175.721 22.809 175.308 21.9285 174.733 21.1559C174.176 20.3832 173.457 19.7723 172.577 19.3231C171.696 18.8559 170.663 18.6223 169.477 18.6223C168.417 18.6223 167.447 18.811 166.566 19.1883C165.704 19.5656 164.958 20.0867 164.329 20.7516C163.7 21.3984 163.215 22.1711 162.874 23.0695C162.532 23.9679 162.362 24.9382 162.362 25.9804C162.362 27.0585 162.523 28.0468 162.847 28.9452C163.188 29.8436 163.664 30.6163 164.275 31.2632C164.886 31.91 165.632 32.4131 166.512 32.7725C167.393 33.1139 168.381 33.2846 169.477 33.2846C171.058 33.2846 172.406 32.9252 173.52 32.2065C174.634 31.4878 175.461 30.2929 176 28.6218H172.631C172.505 29.053 172.164 29.4663 171.606 29.8616C171.049 30.239 170.385 30.4276 169.612 30.4276C168.534 30.4276 167.707 30.1491 167.132 29.5921C166.557 29.0351 166.243 28.1366 166.189 26.8968Z" fill="#A83552"/>
<path d="M185.412 32.9342L190.129 18.9996H186.329L183.391 28.514H183.337L180.399 18.9996H176.383L181.154 32.9342H185.412Z" fill="#A83552"/>
</svg>
