<svg width="154" height="93" viewBox="0 0 154 93" fill="none" xmlns="http://www.w3.org/2000/svg">
<path d="M87.4144 78.5777C86.1093 78.5777 84.8935 78.2985 83.7943 77.7465C82.6989 77.1945 81.8172 76.4322 81.1802 75.476C80.5432 74.5232 80.2208 73.4685 80.2208 72.3382C80.2208 71.2605 80.5354 70.2255 81.1608 69.2726C81.7823 68.3197 82.6601 67.5345 83.7554 66.9463C84.8508 66.3582 86.0821 66.0592 87.4183 66.0592C88.7234 66.0592 89.9391 66.3385 91.0384 66.8905C92.1337 67.4425 93.0154 68.2113 93.6524 69.1773C94.2894 70.1433 94.6118 71.2079 94.6118 72.3382C94.6118 73.4685 94.2894 74.5232 93.6524 75.4793C93.0154 76.4322 92.1337 77.1945 91.0384 77.7465C89.9352 78.2985 88.7195 78.5777 87.4144 78.5777ZM95.7888 68.2705C94.9653 67.0416 93.8 66.0592 92.3357 65.3495C90.8675 64.6398 89.2283 64.2783 87.4571 64.2783C85.6859 64.2783 84.0468 64.6398 82.5785 65.3495C81.1103 66.0625 79.9411 67.0416 79.1021 68.2705C78.2632 69.4993 77.8359 70.853 77.8359 72.302C77.8359 73.8266 78.2554 75.2132 79.0788 76.4289C79.9023 77.6446 81.0559 78.6106 82.5086 79.294C83.9574 79.9775 85.6043 80.3257 87.4066 80.3257C89.2089 80.3257 90.8558 79.9676 92.3085 79.2546C93.7573 78.5416 94.9187 77.569 95.7616 76.3533C96.6006 75.1376 97.0278 73.7773 97.0278 72.3053C97.0317 70.8563 96.6161 69.4993 95.7888 68.2705Z" fill="#002776"/>
<path d="M144.975 66.0194C146.307 66.0194 147.488 66.3315 148.494 66.9427C149.469 67.5374 150.246 68.3227 150.809 69.2821L137.975 73.5404C137.878 73.1691 137.828 72.7387 137.828 72.2557C137.828 71.0991 138.146 70.0378 138.768 69.0981C139.389 68.1584 140.263 67.3994 141.358 66.8474C142.45 66.302 143.67 66.0194 144.975 66.0194ZM150.211 76.9115C148.696 77.9925 146.975 78.5412 145.107 78.5412C143.623 78.5412 142.279 78.2094 141.106 77.5588C139.972 76.928 139.109 76.0967 138.546 75.088L153.71 70.1331L153.675 70.0411C153.003 68.2898 151.924 66.877 150.455 65.842C148.983 64.807 147.185 64.2812 145.103 64.2812C143.367 64.2812 141.739 64.6492 140.271 65.3721C138.803 66.0982 137.626 67.084 136.771 68.3128C135.917 69.5417 135.482 70.8954 135.482 72.3444C135.482 73.8394 135.893 75.2095 136.701 76.4088C137.509 77.6114 138.659 78.5741 140.108 79.274C141.557 79.9705 143.223 80.3254 145.052 80.3254C146.183 80.3254 147.321 80.1512 148.435 79.803C149.554 79.4514 150.564 78.975 151.446 78.3835L151.535 78.3244L150.304 76.8458L150.211 76.9115Z" fill="#002776"/>
<path d="M72.9767 77.198L74.3168 78.4597L74.2158 78.5287C73.3923 79.0971 72.4407 79.544 71.3842 79.8528C70.3316 80.1617 69.2401 80.3194 68.1409 80.3194C66.3386 80.3194 64.6917 79.9744 63.2429 79.2877C61.7941 78.6043 60.6366 77.6448 59.8092 76.4423C58.9858 75.2397 58.5663 73.8728 58.5663 72.3745C58.5663 70.8763 58.9897 69.5061 59.8325 68.3035C60.6715 67.1043 61.8251 66.1481 63.2623 65.4614C64.6995 64.7747 66.2765 64.4297 67.9583 64.4297C70.4287 64.4297 72.5495 65.031 74.2624 66.2204L74.3556 66.2828L73.07 67.6727L72.9767 67.6103C71.4891 66.6311 69.8499 66.1317 68.0982 66.1317C66.7931 66.1317 65.5851 66.411 64.5014 66.963C63.4177 67.515 62.5437 68.2773 61.9106 69.2334C61.2736 70.1863 60.9512 71.241 60.9512 72.3745C60.9512 73.5081 61.2736 74.5563 61.9106 75.496C62.5476 76.4357 63.4332 77.1947 64.548 77.7467C65.6589 78.2987 66.9173 78.578 68.2807 78.578C69.9432 78.578 71.493 78.1311 72.8874 77.2538L72.9767 77.198Z" fill="#002776"/>
<path d="M130.63 69.0293V80.0135H128.195V69.4269C128.137 68.5201 127.775 67.7545 127.131 67.1499C126.486 66.5486 125.534 66.2168 124.299 66.1675C123.118 66.1675 122.007 66.4271 121.005 66.9364C120.05 67.4194 117.513 68.7073 117.513 72.0752V80.0168H115.078V69.4269C115.02 68.5233 114.651 67.7545 113.99 67.1499C113.33 66.5486 112.37 66.2168 111.131 66.1675C110.005 66.1675 107.17 66.4501 105.313 69.0491C104.703 69.9395 104.396 70.9252 104.396 71.9701V80.0168H101.961V64.7875H104.419V67.8104C106.276 64.8204 109.776 64.3604 111.745 64.3604C113.229 64.3604 114.522 64.7021 115.598 65.3789C116.581 65.9966 117.206 66.7852 117.455 67.7282C118.17 66.7096 119.156 65.8981 120.395 65.3132C121.728 64.6823 123.204 64.3636 124.773 64.3636C126.509 64.3636 127.919 64.7941 128.968 65.6418C130.005 66.4862 130.568 67.6263 130.63 69.0293Z" fill="#002776"/>
<path d="M38.1974 66.0194C39.5258 66.0194 40.7105 66.3315 41.7165 66.9427C42.6915 67.5374 43.4683 68.326 44.0276 69.2854L31.1942 73.5437C31.0971 73.1724 31.0466 72.742 31.0466 72.259C31.0466 71.1057 31.3651 70.0411 31.9866 69.1014C32.608 68.1617 33.482 67.4027 34.5773 66.8507C35.6766 66.302 36.8923 66.0194 38.1974 66.0194ZM43.4372 76.9115C41.9224 77.9925 40.2056 78.5412 38.3373 78.5412C36.8535 78.5412 35.5057 78.2094 34.3365 77.5588C33.1984 76.928 32.34 76.0967 31.7729 75.088L46.9369 70.1331L46.902 70.0411C46.2339 68.2898 45.1502 66.877 43.6819 65.842C42.2098 64.807 40.4114 64.2812 38.3334 64.2812C36.5932 64.2812 34.9658 64.6492 33.5014 65.3721C32.0371 66.095 30.8562 67.084 30.0017 68.3128C29.1472 69.5417 28.7122 70.8954 28.7122 72.3444C28.7122 73.8394 29.1239 75.2095 29.9318 76.4088C30.7397 77.6114 31.8895 78.5741 33.3383 79.274C34.7871 79.9705 36.4534 80.3254 38.2829 80.3254C39.4132 80.3254 40.5513 80.1512 41.666 79.803C42.7808 79.4514 43.7946 78.975 44.6763 78.3835L44.7656 78.3244L43.5343 76.8458L43.4372 76.9115Z" fill="#002776"/>
<path d="M53.6877 57.2075H51.3106V80.0137H53.6877V57.2075Z" fill="#002776"/>
<path d="M26.6341 64.7876L18.8773 80.8745L13.0704 70.5803L7.76067 80.881L0 64.7876H2.59078L7.90439 76.327L13.0626 66.4206L18.7647 76.2975L24.055 64.7876H26.6341Z" fill="#002776"/>
<path d="M133.773 86.3848H132.724V92.0001H133.773V86.3848Z" fill="#002776"/>
<path d="M138.076 86.3848V92.0001H142.722V91.2016H139.125V89.5325H141.999V88.7571H139.125V87.1766H142.656V86.3848H138.076Z" fill="#002776"/>
<path d="M150.646 86.3848V90.5116L147.243 86.411L147.22 86.3848H146.241V92.0001H147.255V87.8831L150.657 91.977L150.681 92.0001H151.659V86.3848H150.646Z" fill="#002776"/>
<path d="M122.031 0C122.042 0 122.05 0.00985634 122.046 0.0197135L112.266 22.6254C112.266 22.6254 107.438 34.1681 105.332 36.7606C102.275 40.802 96.0335 41.1996 92.6853 37.2074C91.8152 36.2611 90.9218 34.5099 90.0013 32.3511C89.6905 31.6217 84.7187 19.3759 84.1283 17.9466C82.8271 14.7956 80.0072 12.7354 76.5619 12.3247C74.3634 12.0619 70.3976 12.581 68.0205 16.905C66.1522 20.3057 64.3926 23.9101 63.7362 25.2704C63.709 25.323 63.6158 25.3 63.6313 25.2441C64.1634 23.3483 65.8336 17.4439 66.5717 15.7419C68.2962 11.7431 70.7006 9.70929 74.2896 8.89772C80.7141 7.44214 86.5909 10.6359 88.7 15.9981C90.6033 20.8347 93.4971 28.0239 93.4971 28.0239C93.4971 28.0239 93.5243 28.037 93.5281 28.0239L105.624 0.0131432C105.627 0.00657173 105.631 0.00328642 105.639 0.00328642H111.081C111.093 0.00328642 111.1 0.0131421 111.096 0.0197135C107.193 9.108 96.8647 32.9163 96.3442 34.1649V34.1681C96.5928 34.6741 97.1677 35.4561 98.1271 35.5711C101.677 35.9983 103.755 29.4696 104.987 26.7424L116.577 0.0131432C116.581 0.00657173 116.585 0.00328642 116.593 0.00328642L122.031 0Z" fill="#002776"/>
<path d="M78.838 37.0592C78.8613 37.0231 78.9313 37.0428 78.9235 37.0855C77.8942 42.7271 71.5784 47.4618 66.4979 48.1485C56.7446 49.4726 51.8505 43.0294 47.7953 33.7998L33.2179 0.0456431C33.2101 0.0259288 33.2256 0.00292969 33.2528 0.00292969H38.6519C38.6674 0.00292969 38.6791 0.00950031 38.683 0.0226432C39.0287 0.821072 48.8052 23.4892 51.4582 29.5974C57.2146 43.2626 62.4544 43.8869 65.7599 43.9724C73.8235 44.1728 78.0845 38.2125 78.838 37.0592Z" fill="#002776"/>
<path d="M104.241 40.3682C104.299 40.3189 104.388 40.3813 104.35 40.4405C94.4642 54.4508 85.8995 47.0776 82.0697 38.1668C80.4811 34.4703 76.5502 25.6745 76.5502 25.6679C75.9909 24.4653 74.8606 22.7338 73.4972 22.7371C72.4873 22.7403 71.6173 23.2201 70.417 24.8892C69.0109 26.8475 67.3058 29.4169 66.6222 30.4585C66.5872 30.5111 66.494 30.4749 66.5173 30.4191C67.096 28.9701 68.774 24.7906 69.6946 22.9178C71.392 19.4448 72.5029 17.8052 74.4993 17.3748C76.7677 16.8885 78.4379 18.5872 79.4129 20.1282C80.3645 21.6298 85.6005 34.2108 87.2318 37.4143C89.0574 40.999 91.555 43.4995 94.6002 43.9628C99.5603 44.7152 103.01 41.3835 104.241 40.3682Z" fill="#002776"/>
<path d="M76.9619 33.1459C77.0085 33.1065 77.0862 33.1558 77.0552 33.2051C74.344 37.5455 70.9259 40.7984 65.6045 39.5892C60.252 38.3735 57.4165 30.6291 55.6648 26.6304C51.8621 17.9561 44.3695 0.505644 44.1597 0.0127864C44.1558 0.006215 44.1636 0.00292969 44.1714 0.00292969H49.617C49.6209 0.00292969 49.6248 0.0062143 49.6287 0.00950001C49.8112 0.436643 59.9141 24.1956 61.2891 26.9918C62.5787 29.6138 64.2528 34.5226 67.7292 35.5051C72.2232 36.7766 75.9249 34.0232 76.9619 33.1459Z" fill="#002776"/>
<path d="M133.773 86.3848H132.724V92.0001H133.773V86.3848Z" fill="#002776"/>
<path d="M75.4044 86.3848H74.3556V92.0001H75.4044V86.3848Z" fill="#002776"/>
<path d="M84.4002 86.3848L82.5125 90.528L80.5937 86.3848H79.0594V92.0001H80.081V87.6038L82.1435 92.0001H82.8155L84.8858 87.6038V92.0001H85.9306V86.3848H84.4002Z" fill="#002776"/>
<path d="M95.1168 86.3848L93.2291 90.528L91.3141 86.3848H89.7799V92.0001H90.7975V87.6038L92.8601 92.0001H93.532L95.6023 87.6038V92.0001H96.651V86.3848H95.1168Z" fill="#002776"/>
<path d="M103.328 91.3332C101.941 91.3332 100.935 90.4296 100.935 89.1844C100.935 87.9391 101.941 87.0355 103.328 87.0355C104.726 87.0355 105.74 87.9391 105.74 89.1844C105.74 90.4296 104.722 91.3332 103.328 91.3332ZM103.328 86.2437C101.258 86.2437 99.8128 87.4528 99.8128 89.1811C99.8128 90.8929 101.293 92.1382 103.328 92.1382C105.375 92.1382 106.859 90.8962 106.859 89.1811C106.859 87.4528 105.406 86.2437 103.328 86.2437Z" fill="#002776"/>
<path d="M112.452 91.2316H111.1V89.4737H112.534C113.524 89.4737 114.006 89.7563 114.006 90.3411C114.006 91.1166 113.031 91.2316 112.452 91.2316ZM112.347 87.1441C113.252 87.1441 113.707 87.4037 113.707 87.9097C113.707 88.4091 113.252 88.7081 112.495 88.7081H111.096V87.1441H112.347ZM113.784 89.0203C114.39 88.8133 114.759 88.373 114.759 87.8308C114.759 86.487 113.14 86.3818 112.646 86.3818H110.055V92.0004H112.545C114.099 92.0004 115.066 91.3794 115.066 90.3806C115.062 89.6906 114.569 89.178 113.784 89.0203Z" fill="#002776"/>
<path d="M120.259 86.3848H119.214V92.0001H120.259V86.3848Z" fill="#002776"/>
<path d="M125.414 86.3848V92.0001H129.376V91.2016H126.462V86.3848H125.414Z" fill="#002776"/>
</svg>
