<svg width="24" height="25" viewBox="0 0 24 25" fill="none" xmlns="http://www.w3.org/2000/svg">
<path d="M23.5453 9.41372C23.7281 9.26841 24 9.40435 24 9.63403V19.22C24 20.4622 22.9922 21.47 21.75 21.47H2.25C1.00781 21.47 0 20.4622 0 19.22V9.63872C0 9.40435 0.267187 9.2731 0.454687 9.41841C1.50469 10.234 2.89688 11.27 7.67813 14.7434C8.66719 15.4653 10.3359 16.984 12 16.9747C13.6734 16.9887 15.375 15.4372 16.3266 14.7434C21.1078 11.27 22.4953 10.2293 23.5453 9.41372ZM12 15.47C13.0875 15.4887 14.6531 14.1012 15.4406 13.5293C21.6609 9.01528 22.1344 8.62153 23.5687 7.49653C23.8406 7.2856 24 6.95747 24 6.6106V5.71997C24 4.47778 22.9922 3.46997 21.75 3.46997H2.25C1.00781 3.46997 0 4.47778 0 5.71997V6.6106C0 6.95747 0.159375 7.28091 0.43125 7.49653C1.86563 8.61685 2.33906 9.01528 8.55938 13.5293C9.34688 14.1012 10.9125 15.4887 12 15.47Z" fill="#A83552"/>
</svg>
