<svg width="32" height="32" viewBox="0 0 32 32" fill="none" xmlns="http://www.w3.org/2000/svg">
<path d="M23.3156 17.4292L18.0655 15.1792C17.8412 15.0836 17.5919 15.0635 17.3552 15.1218C17.1185 15.1801 16.9071 15.3138 16.7529 15.5026L14.4279 18.3433C10.779 16.6229 7.84242 13.6863 6.12198 10.0374L8.96266 7.71233C9.15188 7.55843 9.28581 7.34706 9.34418 7.11023C9.40254 6.87341 9.38215 6.62401 9.2861 6.39981L7.03606 1.14971C6.93064 0.908026 6.7442 0.710696 6.50887 0.59175C6.27355 0.472804 6.00409 0.439698 5.74697 0.49814L0.87189 1.62316C0.623996 1.6804 0.402825 1.81998 0.244474 2.01911C0.0861227 2.21824 -5.71046e-05 2.46517 2.8389e-08 2.71959C2.8389e-08 14.7432 9.74548 24.47 21.7504 24.47C22.0049 24.4701 22.2519 24.384 22.4511 24.2256C22.6504 24.0673 22.79 23.8461 22.8473 23.5981L23.9723 18.723C24.0304 18.4646 23.9965 18.1941 23.8767 17.958C23.7568 17.7218 23.5584 17.5349 23.3156 17.4292Z" fill="#A83552"/>
</svg>
